<svg xmlns="http://www.w3.org/2000/svg" viewBox="0 0 1024 1024" role="img" aria-label="over30">
  <title>over30</title>
  <rect width="1024" height="1024" rx="225.28" ry="225.28" fill="#2a1b1a"/>
  <g transform="translate(193.69 565.15) scale(0.806721)">
    <g fill="#f5efe6"><path transform="translate(677.00 0) scale(1.000000 -1.000000)" d="M101.15008544921875 -11Q78.64996337890625 -11 65.17489624023438 2.1156959533691406Q51.6998291015625 15.231391906738281 51.6998291015625 37.71544211251395Q51.6998291015625 58.95037841796875 65.17489624023438 71.65045166015625Q78.64996337890625 84.35052490234375 101.02846052839949 84.35052490234375Q124.65020751953125 84.35052490234375 136.9002685546875 71.65045166015625Q149.15032958984375 58.95037841796875 149.15032958984375 37.71544211251395Q149.15032958984375 15.231391906738281 136.84257468199118 2.1156959533691406Q124.53481977413863 -11 101.15008544921875 -11Z"/></g><g fill="#cc6a55"><path transform="translate(0.00 0) scale(1.000000 -1.000000)" d="M-30.7000732421875 -276Q-33.800048828125 -277 -35.975067138671875 -271.2250061035156Q-38.15008544921875 -265.45001220703125 -35.7000732421875 -264Q47.24981689453125 -235.2999267578125 97.94976806640625 -192.2999267578125Q148.64971923828125 -149.2999267578125 173.97470092773438 -102.42495727539062Q199.2996826171875 -55.54998779296875 205.84967041015625 -16.800048828125Q211.74969482421875 16.800048828125 205.899658203125 44.85003662109375Q200.04962158203125 72.9000244140625 181.099609375 90.04998779296875Q162.14959716796875 107.199951171875 126.74969482421875 107.199951171875Q117.64971923828125 107.199951171875 107.04974365234375 105.199951171875Q96.44976806640625 103.199951171875 84.7998046875 99.74993896484375Q80.8997802734375 98.74993896484375 78.67477416992188 105.97494506835938Q76.44976806640625 113.199951171875 80.34979248046875 114.199951171875Q152.4996337890625 132.84991455078125 189.17465209960938 170.57492065429688Q225.84967041015625 208.2999267578125 236.2996826171875 272.35003662109375Q245.2996826171875 319.9000244140625 233.499755859375 347.64996337890625Q221.6998291015625 375.39990234375 185.800048828125 375.39990234375Q146.7000732421875 375.39990234375 112.9000244140625 346.44989013671875Q79.0999755859375 317.4998779296875 51.74993896484375 257.45001220703125Q49.74993896484375 254 44.24993896484375 256.5Q38.74993896484375 259 39.74993896484375 262.45001220703125L98.84991455078125 406.199951171875Q100.84991455078125 409.199951171875 105.84991455078125 406.9249572753906Q110.84991455078125 404.64996337890625 108.84991455078125 400.64996337890625Q102.74993896484375 385.54998779296875 107.02493286132812 381.2749938964844Q111.2999267578125 377 117.74993896484375 377Q132.64996337890625 377 158.54998779296875 388.0Q184.45001220703125 399 217.7000732421875 399Q254.05010986328125 399 275.45013427734375 382.04998779296875Q296.85015869140625 365.0999755859375 304.5251770019531 338.3749694824219Q312.2001953125 311.64996337890625 306.65020751953125 281.0999755859375Q300.65020751953125 245.0999755859375 278.9751892089844 211.32498168945312Q257.3001708984375 177.54998779296875 223.67514038085938 153.0Q190.05010986328125 128.45001220703125 147.7000732421875 119L158.4998779296875 132.800048828125Q210.45001220703125 131.9000244140625 239.42507934570312 110.5Q268.400146484375 89.0999755859375 278.35015869140625 55.924957275390625Q288.3001708984375 22.74993896484375 281.3001708984375 -14.7000732421875Q273.75018310546875 -59.800048828125 236.57516479492188 -109.22500610351562Q199.400146484375 -158.64996337890625 133.15008544921875 -202.699951171875Q66.9000244140625 -246.74993896484375 -30.7000732421875 -276Z"/><path transform="translate(291.00 0) scale(1.000000 -1.000000)" d="M184.7000732421875 -13Q131.35003662109375 -13 93.0 13.774993896484375Q54.64996337890625 40.54998779296875 38.24993896484375 87.77499389648438Q21.84991455078125 135 32.2999267578125 196Q43.2999267578125 256 76.199951171875 301.5Q109.0999755859375 347 156.95001220703125 373.0Q204.800048828125 399 259.15008544921875 399Q313.5001220703125 399 350.85015869140625 372.95001220703125Q388.2001953125 346.9000244140625 404.3752136230469 300.4000244140625Q420.55023193359375 253.9000244140625 409.1002197265625 193Q398.2001953125 132.54998779296875 365.3001708984375 86.04998779296875Q332.400146484375 39.54998779296875 285.5001220703125 13.274993896484375Q238.60009765625 -13 184.7000732421875 -13ZM199.5001220703125 2.60009765625Q235 2.60009765625 261.6249084472656 25.825103759765625Q288.24981689453125 49.05010986328125 305.999755859375 89.65008544921875Q323.74969482421875 130.25006103515625 331.84967041015625 181Q342.4996337890625 248.39990234375 333.7996826171875 293.2248840332031Q325.0997314453125 338.04986572265625 302.1998291015625 360.7248840332031Q279.2999267578125 383.39990234375 246.9000244140625 383.39990234375Q196.45025634765625 383.39990234375 159.05035400390625 333.64996337890625Q121.65045166015625 283.9000244140625 108.55047607421875 204Q99.9005126953125 148.7000732421875 107.1004638671875 102.87509155273438Q114.3004150390625 57.05010986328125 137.65032958984375 29.825103759765625Q161.000244140625 2.60009765625 199.5001220703125 2.60009765625Z"/></g>
  </g>
</svg>
